<svg width="640" height="512" viewBox="0 0 640 512" fill="none" xmlns="http://www.w3.org/2000/svg">
<path d="M224 256C294.7 256 352 198.69 352 128C352 57.31 294.7 0 224 0C153.3 0 96 57.31 96 128C96 198.69 153.3 256 224 256ZM274.7 304H173.3C77.57 304 0 381.6 0 477.3C0 496.5 15.52 512 34.66 512H413.3C432.5 512 448 496.5 448 477.3C448 381.6 370.4 304 274.7 304ZM479.1 320H405.25C451.2 357.7 480 414.1 480 477.3C480 490.1 476.2 501.9 470 512H608C625.7 512 640 497.6 640 479.1C640 391.6 568.4 320 479.1 320ZM432 256C493.9 256 544 205.9 544 144C544 82.1 493.9 32 432 32C406.89 32 383.96 40.555 365.28 54.51C376.8 76.63 384 101.4 384 128C384 163.52 372.07 196.14 352.41 222.71C372.7 243.2 400.8 256 432 256Z" fill="#6A53E5"/>
</svg>
